{"title":"Love And Other Drugs XVID BDRIP SAFCuk009","uid":6124484,"size":1196653038,"categoryP":"video","categoryS":"movies","magnet":"?xt=urn:btih:fd62de3238ad3b56528ad2baddc02cd8145a0ad7&amp;dn=Love+And+Other+Drugs+XVID+BDRIP+SAFCuk009&amp;tr=udp%3A%2F%2Ftracker.openbittorrent.com%3A80&amp;tr=udp%3A%2F%2Fopen.demonii.com%3A1337&amp;tr=udp%3A%2F%2Ftracker.coppersurfer.tk%3A6969&amp;tr=udp%3A%2F%2Fexodus.desync.com%3A6969","seeders":0,"leechers":0,"uploader":"SAFCukO09","files":3,"time":1295884403,"description":"Format : AVI\nFormat/Info : Audio Video Interleave\nFile size : 1.11 GiB\nDuration : 1h 52mn\nOverall bit rate : 1 422 Kbps\nWriting library : VirtualDub build 32839/release\n\nVideo\nID : 0\nFormat : MPEG-4 Visual\nFormat profile : Advanced Simple@L5\nFormat settings, BVOP : Yes\nFormat settings, QPel : No\nFormat settings, GMC : No warppoints\nFormat settings, Matrix : Custom\nCodec ID : XVID\nCodec ID/Hint : XviD\nDuration : 1h 52mn\nBit rate : 965 Kbps\nWidth : 640 pixels\nHeight : 352 pixels\nDisplay aspect ratio : 16:9\nFrame rate : 23.976 fps\nColor space : YUV\nChroma subsampling : 4:2:0\nBit depth : 8 bits\nScan type : Progressive\nBits/(Pixel*Frame) : 0.179\nStream size : 774 MiB (68%)\nWriting library : XviD 1.2.1 (UTC 2008-12-04)\n\nAudio\nID : 1\nFormat : AC-3\nFormat/Info : Audio Coding 3\nMode extension : CM (complete main)\nCodec ID : 2000\nDuration : 1h 52mn\nBit rate mode : Constant\nBit rate : 448 Kbps\nChannel(s) : 6 channels\nChannel positions : Front: L C R, Side: L R, LFE\nSampling rate : 48.0 KHz\nBit depth : 16 bits\nStream size : 360 MiB (32%)\nAlignment : Split accross interleaves\nInterleave, duration : 42 ms (1.00 video frame)\nInterleave, preload duration : 500 ms\n\n &lt;a href=&quot;\nhttp://www.imdb.com/title/tt0758752/&quot; rel=&quot;nofollow&quot; target=&quot;_NEW&quot;&gt;\nhttp://www.imdb.com/title/tt0758752/&lt;/a&gt;\n\nUsers: 6.6/10 (4,571 votes) 82 reviews | Critics: 126 reviews Metascore: 55/100 (based on 38 reviews from Metacritic.com)\n\nMaggie (Hathaway) is an alluring free spirit who won't let anyone - or anything - tie her down. But she meets her match in Jamie (Gyllenhaal)... See full summary Ã‚Â»\nDirector:\nEdward Zwick\nWriters:\nCharles Randolph (screenplay), Edward Zwick (screenplay), and 2 more credits Ã‚Â»\nStars:\nJake Gyllenhaal, Anne Hathaway and Judy Greer\n","torrent":{"xt":"urn:btih:fd62de3238ad3b56528ad2baddc02cd8145a0ad7","amp;dn":"Love+And+Other+Drugs+XVID+BDRIP+SAFCuk009","amp;tr":["udp%3A%2F%2Ftracker.openbittorrent.com%3A80","udp%3A%2F%2Fopen.demonii.com%3A1337","udp%3A%2F%2Ftracker.coppersurfer.tk%3A6969","udp%3A%2F%2Fexodus.desync.com%3A6969"],"infoHash":"fd62de3238ad3b56528ad2baddc02cd8145a0ad7","infoHashBuffer":{"type":"Buffer","data":[253,98,222,50,56,173,59,86,82,138,210,186,221,192,44,216,20,90,10,215]},"announce":[],"urlList":[]}}